<mxfile host="app.diagrams.net" modified="2021-01-08T12:15:48.376Z" agent="5.0 (Windows NT 10.0; Win64; x64) AppleWebKit/537.36 (KHTML, like Gecko) Chrome/87.0.4280.88 Safari/537.36" etag="hohOgCaIwl_XGXyG_dfm" version="14.1.3" type="github">
  <diagram name="Page-1" id="197159a0-c6a4-9194-75a8-e4174976684c">
    <mxGraphModel dx="1580" dy="762" grid="0" gridSize="10" guides="0" tooltips="1" connect="1" arrows="1" fold="1" page="0" pageScale="1.5" pageWidth="1169" pageHeight="826" background="none" math="0" shadow="0">
      <root>
        <mxCell id="0" style=";html=1;" />
        <mxCell id="1" style=";html=1;" parent="0" />
        <mxCell id="jyipp_2WfXr9Q36Wqz55-13" value="" style="rounded=1;whiteSpace=wrap;html=1;" parent="1" vertex="1">
          <mxGeometry x="580" y="100" width="830" height="650" as="geometry" />
        </mxCell>
        <mxCell id="jyipp_2WfXr9Q36Wqz55-45" value="" style="group" parent="1" vertex="1" connectable="0">
          <mxGeometry x="620" y="170" width="590" height="570" as="geometry" />
        </mxCell>
        <mxCell id="jyipp_2WfXr9Q36Wqz55-43" value="" style="rounded=1;whiteSpace=wrap;html=1;" parent="jyipp_2WfXr9Q36Wqz55-45" vertex="1">
          <mxGeometry width="590" height="570" as="geometry" />
        </mxCell>
        <mxCell id="jyipp_2WfXr9Q36Wqz55-44" value="实例1" style="text;html=1;align=center;verticalAlign=middle;resizable=0;points=[];autosize=1;" parent="jyipp_2WfXr9Q36Wqz55-45" vertex="1">
          <mxGeometry x="54.756097560975604" width="50" height="20" as="geometry" />
        </mxCell>
        <mxCell id="jyipp_2WfXr9Q36Wqz55-42" value="ck headless service" style="rounded=1;whiteSpace=wrap;html=1;" parent="jyipp_2WfXr9Q36Wqz55-45" vertex="1">
          <mxGeometry x="19.76" y="272.5" width="120" height="37.5" as="geometry" />
        </mxCell>
        <mxCell id="jyipp_2WfXr9Q36Wqz55-21" value="" style="rounded=0;whiteSpace=wrap;html=1;" parent="jyipp_2WfXr9Q36Wqz55-45" vertex="1">
          <mxGeometry x="150" y="330" width="190" height="220" as="geometry" />
        </mxCell>
        <mxCell id="jyipp_2WfXr9Q36Wqz55-23" value="Node 1" style="text;html=1;align=center;verticalAlign=middle;resizable=0;points=[];autosize=1;" parent="jyipp_2WfXr9Q36Wqz55-45" vertex="1">
          <mxGeometry x="150" y="330" width="50" height="20" as="geometry" />
        </mxCell>
        <mxCell id="jyipp_2WfXr9Q36Wqz55-49" value="" style="rounded=0;whiteSpace=wrap;html=1;" parent="jyipp_2WfXr9Q36Wqz55-45" vertex="1">
          <mxGeometry x="150" y="50" width="190" height="220" as="geometry" />
        </mxCell>
        <mxCell id="jyipp_2WfXr9Q36Wqz55-50" value="" style="rounded=1;whiteSpace=wrap;html=1;" parent="jyipp_2WfXr9Q36Wqz55-45" vertex="1">
          <mxGeometry x="160" y="80" width="150" height="40" as="geometry" />
        </mxCell>
        <mxCell id="jyipp_2WfXr9Q36Wqz55-51" value="ZK-pod1" style="text;html=1;strokeColor=none;fillColor=none;align=center;verticalAlign=middle;whiteSpace=wrap;rounded=0;" parent="jyipp_2WfXr9Q36Wqz55-45" vertex="1">
          <mxGeometry x="170" y="80" width="70" height="20" as="geometry" />
        </mxCell>
        <mxCell id="jyipp_2WfXr9Q36Wqz55-52" value="" style="rounded=0;whiteSpace=wrap;html=1;" parent="jyipp_2WfXr9Q36Wqz55-45" vertex="1">
          <mxGeometry x="350" y="50" width="190" height="220" as="geometry" />
        </mxCell>
        <mxCell id="jyipp_2WfXr9Q36Wqz55-53" value="" style="rounded=1;whiteSpace=wrap;html=1;" parent="jyipp_2WfXr9Q36Wqz55-45" vertex="1">
          <mxGeometry x="360" y="80" width="150" height="40" as="geometry" />
        </mxCell>
        <mxCell id="jyipp_2WfXr9Q36Wqz55-54" value="ZK-pod2" style="text;html=1;strokeColor=none;fillColor=none;align=center;verticalAlign=middle;whiteSpace=wrap;rounded=0;" parent="jyipp_2WfXr9Q36Wqz55-45" vertex="1">
          <mxGeometry x="360" y="80" width="70" height="20" as="geometry" />
        </mxCell>
        <mxCell id="jyipp_2WfXr9Q36Wqz55-55" value="" style="rounded=1;whiteSpace=wrap;html=1;" parent="jyipp_2WfXr9Q36Wqz55-45" vertex="1">
          <mxGeometry x="190" y="160" width="150" height="40" as="geometry" />
        </mxCell>
        <mxCell id="jyipp_2WfXr9Q36Wqz55-56" value="ZK-pod3" style="text;html=1;strokeColor=none;fillColor=none;align=center;verticalAlign=middle;whiteSpace=wrap;rounded=0;" parent="jyipp_2WfXr9Q36Wqz55-45" vertex="1">
          <mxGeometry x="190" y="160" width="70" height="20" as="geometry" />
        </mxCell>
        <mxCell id="jyipp_2WfXr9Q36Wqz55-60" value="eth0" style="ellipse;whiteSpace=wrap;html=1;fillColor=#fff2cc;strokeColor=#d6b656;" parent="jyipp_2WfXr9Q36Wqz55-45" vertex="1">
          <mxGeometry x="250" y="170" width="30" height="30" as="geometry" />
        </mxCell>
        <mxCell id="jyipp_2WfXr9Q36Wqz55-61" value="eth0" style="ellipse;whiteSpace=wrap;html=1;fillColor=#fff2cc;strokeColor=#d6b656;" parent="jyipp_2WfXr9Q36Wqz55-45" vertex="1">
          <mxGeometry x="220" y="90" width="30" height="30" as="geometry" />
        </mxCell>
        <mxCell id="jyipp_2WfXr9Q36Wqz55-62" value="eth0" style="ellipse;whiteSpace=wrap;html=1;fillColor=#fff2cc;strokeColor=#d6b656;" parent="jyipp_2WfXr9Q36Wqz55-45" vertex="1">
          <mxGeometry x="460" y="90" width="30" height="30" as="geometry" />
        </mxCell>
        <mxCell id="jyipp_2WfXr9Q36Wqz55-68" value="endpoints" style="rounded=1;whiteSpace=wrap;html=1;" parent="jyipp_2WfXr9Q36Wqz55-45" vertex="1">
          <mxGeometry x="44.75999999999999" y="370" width="70" height="20" as="geometry" />
        </mxCell>
        <mxCell id="jyipp_2WfXr9Q36Wqz55-69" value="" style="endArrow=classic;html=1;exitX=0.5;exitY=1;exitDx=0;exitDy=0;entryX=0.5;entryY=0;entryDx=0;entryDy=0;" parent="jyipp_2WfXr9Q36Wqz55-45" source="jyipp_2WfXr9Q36Wqz55-42" target="jyipp_2WfXr9Q36Wqz55-68" edge="1">
          <mxGeometry width="50" height="50" relative="1" as="geometry">
            <mxPoint x="400" y="370" as="sourcePoint" />
            <mxPoint x="450" y="320" as="targetPoint" />
          </mxGeometry>
        </mxCell>
        <mxCell id="jyipp_2WfXr9Q36Wqz55-70" value="" style="endArrow=classic;html=1;entryX=0.5;entryY=1;entryDx=0;entryDy=0;" parent="jyipp_2WfXr9Q36Wqz55-45" target="jyipp_2WfXr9Q36Wqz55-29" edge="1">
          <mxGeometry width="50" height="50" relative="1" as="geometry">
            <mxPoint x="114.75999999999999" y="390" as="sourcePoint" />
            <mxPoint x="271" y="440" as="targetPoint" />
            <Array as="points">
              <mxPoint x="140" y="460" />
              <mxPoint x="220" y="500" />
            </Array>
          </mxGeometry>
        </mxCell>
        <mxCell id="gd2pXCOPoKfYYE60sO6E-21" value="" style="rounded=1;whiteSpace=wrap;html=1;" vertex="1" parent="jyipp_2WfXr9Q36Wqz55-45">
          <mxGeometry x="10" y="440" width="110" height="37.5" as="geometry" />
        </mxCell>
        <mxCell id="gd2pXCOPoKfYYE60sO6E-22" value="" style="rounded=1;whiteSpace=wrap;html=1;" vertex="1" parent="jyipp_2WfXr9Q36Wqz55-45">
          <mxGeometry x="19.76" y="449.5" width="110.24" height="37.5" as="geometry" />
        </mxCell>
        <mxCell id="gd2pXCOPoKfYYE60sO6E-23" value="pod headless service" style="rounded=1;whiteSpace=wrap;html=1;" vertex="1" parent="jyipp_2WfXr9Q36Wqz55-45">
          <mxGeometry x="29.76" y="460" width="110" height="37.5" as="geometry" />
        </mxCell>
        <mxCell id="jyipp_2WfXr9Q36Wqz55-12" value="" style="whiteSpace=wrap;html=1;aspect=fixed;" parent="1" vertex="1">
          <mxGeometry x="30" y="495" width="210" height="210" as="geometry" />
        </mxCell>
        <mxCell id="jyipp_2WfXr9Q36Wqz55-14" value="Service VPC" style="text;html=1;align=center;verticalAlign=middle;resizable=0;points=[];autosize=1;" parent="1" vertex="1">
          <mxGeometry x="815" y="100" width="80" height="20" as="geometry" />
        </mxCell>
        <mxCell id="jyipp_2WfXr9Q36Wqz55-15" value="User&amp;nbsp; VPC" style="text;html=1;align=center;verticalAlign=middle;resizable=0;points=[];autosize=1;" parent="1" vertex="1">
          <mxGeometry x="95" y="470" width="70" height="20" as="geometry" />
        </mxCell>
        <mxCell id="jyipp_2WfXr9Q36Wqz55-19" value="" style="rounded=1;whiteSpace=wrap;html=1;" parent="1" vertex="1">
          <mxGeometry x="780" y="540" width="150" height="60" as="geometry" />
        </mxCell>
        <mxCell id="jyipp_2WfXr9Q36Wqz55-20" value="" style="rounded=1;whiteSpace=wrap;html=1;" parent="1" vertex="1">
          <mxGeometry x="790" y="560" width="150" height="50" as="geometry" />
        </mxCell>
        <mxCell id="jyipp_2WfXr9Q36Wqz55-22" value="" style="rounded=0;whiteSpace=wrap;html=1;" parent="1" vertex="1">
          <mxGeometry x="980" y="500" width="190" height="220" as="geometry" />
        </mxCell>
        <mxCell id="jyipp_2WfXr9Q36Wqz55-24" value="pod 1" style="text;html=1;align=center;verticalAlign=middle;resizable=0;points=[];autosize=1;" parent="1" vertex="1">
          <mxGeometry x="780" y="540" width="50" height="20" as="geometry" />
        </mxCell>
        <mxCell id="jyipp_2WfXr9Q36Wqz55-25" value="pod 2" style="text;html=1;align=center;verticalAlign=middle;resizable=0;points=[];autosize=1;" parent="1" vertex="1">
          <mxGeometry x="790" y="560" width="50" height="20" as="geometry" />
        </mxCell>
        <mxCell id="jyipp_2WfXr9Q36Wqz55-26" value="" style="rounded=1;whiteSpace=wrap;html=1;" parent="1" vertex="1">
          <mxGeometry x="800" y="580" width="150" height="50" as="geometry" />
        </mxCell>
        <mxCell id="jyipp_2WfXr9Q36Wqz55-27" value="pod 3" style="text;html=1;align=center;verticalAlign=middle;resizable=0;points=[];autosize=1;" parent="1" vertex="1">
          <mxGeometry x="800" y="580" width="50" height="20" as="geometry" />
        </mxCell>
        <mxCell id="jyipp_2WfXr9Q36Wqz55-28" value="Node 2" style="text;html=1;align=center;verticalAlign=middle;resizable=0;points=[];autosize=1;" parent="1" vertex="1">
          <mxGeometry x="980" y="500" width="50" height="20" as="geometry" />
        </mxCell>
        <mxCell id="jyipp_2WfXr9Q36Wqz55-29" value="eth0" style="ellipse;whiteSpace=wrap;html=1;fillColor=#fff2cc;strokeColor=#d6b656;" parent="1" vertex="1">
          <mxGeometry x="890" y="600" width="30" height="30" as="geometry" />
        </mxCell>
        <mxCell id="jyipp_2WfXr9Q36Wqz55-30" value="弹性网卡" style="ellipse;whiteSpace=wrap;html=1;fillColor=#d5e8d4;strokeColor=#82b366;" parent="1" vertex="1">
          <mxGeometry x="820" y="600" width="30" height="30" as="geometry" />
        </mxCell>
        <mxCell id="jyipp_2WfXr9Q36Wqz55-32" value="VM" style="rounded=0;whiteSpace=wrap;html=1;" parent="1" vertex="1">
          <mxGeometry x="95" y="540" width="35" height="30" as="geometry" />
        </mxCell>
        <mxCell id="jyipp_2WfXr9Q36Wqz55-33" value="VM" style="rounded=0;whiteSpace=wrap;html=1;" parent="1" vertex="1">
          <mxGeometry x="95" y="590" width="35" height="30" as="geometry" />
        </mxCell>
        <mxCell id="jyipp_2WfXr9Q36Wqz55-34" value="VM" style="rounded=0;whiteSpace=wrap;html=1;" parent="1" vertex="1">
          <mxGeometry x="95" y="640" width="35" height="30" as="geometry" />
        </mxCell>
        <mxCell id="jyipp_2WfXr9Q36Wqz55-35" value="" style="endArrow=classic;html=1;exitX=1;exitY=0.5;exitDx=0;exitDy=0;entryX=0;entryY=0.5;entryDx=0;entryDy=0;" parent="1" source="jyipp_2WfXr9Q36Wqz55-32" target="jyipp_2WfXr9Q36Wqz55-36" edge="1">
          <mxGeometry width="50" height="50" relative="1" as="geometry">
            <mxPoint x="480" y="430" as="sourcePoint" />
            <mxPoint x="280" y="590" as="targetPoint" />
          </mxGeometry>
        </mxCell>
        <mxCell id="jyipp_2WfXr9Q36Wqz55-36" value="service domain" style="rounded=1;whiteSpace=wrap;html=1;" parent="1" vertex="1">
          <mxGeometry x="280" y="520" width="100" height="42.5" as="geometry" />
        </mxCell>
        <mxCell id="jyipp_2WfXr9Q36Wqz55-37" value="pod domain" style="rounded=1;whiteSpace=wrap;html=1;" parent="1" vertex="1">
          <mxGeometry x="280" y="600" width="100" height="42.5" as="geometry" />
        </mxCell>
        <mxCell id="jyipp_2WfXr9Q36Wqz55-38" value="pod domain" style="rounded=1;whiteSpace=wrap;html=1;" parent="1" vertex="1">
          <mxGeometry x="290" y="610" width="100" height="42.5" as="geometry" />
        </mxCell>
        <mxCell id="jyipp_2WfXr9Q36Wqz55-39" value="pod domain" style="rounded=1;whiteSpace=wrap;html=1;" parent="1" vertex="1">
          <mxGeometry x="300" y="620" width="100" height="42.5" as="geometry" />
        </mxCell>
        <mxCell id="jyipp_2WfXr9Q36Wqz55-40" value="LB Service IP" style="ellipse;shape=cloud;whiteSpace=wrap;html=1;" parent="1" vertex="1">
          <mxGeometry x="420" y="480" width="100" height="60" as="geometry" />
        </mxCell>
        <mxCell id="jyipp_2WfXr9Q36Wqz55-41" value="" style="endArrow=classic;html=1;exitX=1;exitY=0.5;exitDx=0;exitDy=0;entryX=0.16;entryY=0.55;entryDx=0;entryDy=0;entryPerimeter=0;" parent="1" source="jyipp_2WfXr9Q36Wqz55-36" target="jyipp_2WfXr9Q36Wqz55-40" edge="1">
          <mxGeometry width="50" height="50" relative="1" as="geometry">
            <mxPoint x="140" y="565" as="sourcePoint" />
            <mxPoint x="290" y="551.25" as="targetPoint" />
          </mxGeometry>
        </mxCell>
        <mxCell id="jyipp_2WfXr9Q36Wqz55-46" value="" style="endArrow=classic;html=1;exitX=0.875;exitY=0.5;exitDx=0;exitDy=0;exitPerimeter=0;entryX=0;entryY=0.5;entryDx=0;entryDy=0;" parent="1" source="jyipp_2WfXr9Q36Wqz55-40" target="jyipp_2WfXr9Q36Wqz55-42" edge="1">
          <mxGeometry width="50" height="50" relative="1" as="geometry">
            <mxPoint x="510" y="550" as="sourcePoint" />
            <mxPoint x="560" y="500" as="targetPoint" />
          </mxGeometry>
        </mxCell>
        <mxCell id="jyipp_2WfXr9Q36Wqz55-47" value="" style="endArrow=classic;html=1;exitX=1;exitY=0.75;exitDx=0;exitDy=0;entryX=0;entryY=0.5;entryDx=0;entryDy=0;dashed=1;" parent="1" source="jyipp_2WfXr9Q36Wqz55-32" target="jyipp_2WfXr9Q36Wqz55-39" edge="1">
          <mxGeometry width="50" height="50" relative="1" as="geometry">
            <mxPoint x="300" y="790" as="sourcePoint" />
            <mxPoint x="350" y="740" as="targetPoint" />
          </mxGeometry>
        </mxCell>
        <mxCell id="jyipp_2WfXr9Q36Wqz55-48" value="" style="endArrow=classic;html=1;exitX=1;exitY=0.5;exitDx=0;exitDy=0;entryX=0;entryY=0.75;entryDx=0;entryDy=0;dashed=1;" parent="1" source="jyipp_2WfXr9Q36Wqz55-39" target="gd2pXCOPoKfYYE60sO6E-23" edge="1">
          <mxGeometry width="50" height="50" relative="1" as="geometry">
            <mxPoint x="440" y="730" as="sourcePoint" />
            <mxPoint x="500" y="670" as="targetPoint" />
          </mxGeometry>
        </mxCell>
        <mxCell id="jyipp_2WfXr9Q36Wqz55-57" value="" style="endArrow=classic;html=1;exitX=0.5;exitY=0;exitDx=0;exitDy=0;entryX=0.5;entryY=1;entryDx=0;entryDy=0;" parent="1" source="jyipp_2WfXr9Q36Wqz55-29" target="jyipp_2WfXr9Q36Wqz55-55" edge="1">
          <mxGeometry width="50" height="50" relative="1" as="geometry">
            <mxPoint x="400" y="360" as="sourcePoint" />
            <mxPoint x="450" y="310" as="targetPoint" />
          </mxGeometry>
        </mxCell>
        <mxCell id="jyipp_2WfXr9Q36Wqz55-58" value="" style="endArrow=classic;html=1;exitX=0.5;exitY=0;exitDx=0;exitDy=0;entryX=0.75;entryY=1;entryDx=0;entryDy=0;" parent="1" target="jyipp_2WfXr9Q36Wqz55-53" edge="1">
          <mxGeometry width="50" height="50" relative="1" as="geometry">
            <mxPoint x="915" y="610" as="sourcePoint" />
            <mxPoint x="895" y="380" as="targetPoint" />
          </mxGeometry>
        </mxCell>
        <mxCell id="jyipp_2WfXr9Q36Wqz55-59" value="" style="endArrow=classic;html=1;exitX=0;exitY=0;exitDx=0;exitDy=0;" parent="1" source="jyipp_2WfXr9Q36Wqz55-29" target="jyipp_2WfXr9Q36Wqz55-50" edge="1">
          <mxGeometry width="50" height="50" relative="1" as="geometry">
            <mxPoint x="925" y="620" as="sourcePoint" />
            <mxPoint x="905" y="390" as="targetPoint" />
          </mxGeometry>
        </mxCell>
        <mxCell id="jyipp_2WfXr9Q36Wqz55-63" value="" style="rounded=1;whiteSpace=wrap;html=1;" parent="1" vertex="1">
          <mxGeometry x="990" y="545" width="150" height="60" as="geometry" />
        </mxCell>
        <mxCell id="jyipp_2WfXr9Q36Wqz55-64" value="" style="rounded=1;whiteSpace=wrap;html=1;" parent="1" vertex="1">
          <mxGeometry x="1000" y="565" width="150" height="50" as="geometry" />
        </mxCell>
        <mxCell id="jyipp_2WfXr9Q36Wqz55-65" value="" style="rounded=1;whiteSpace=wrap;html=1;" parent="1" vertex="1">
          <mxGeometry x="1010" y="585" width="150" height="50" as="geometry" />
        </mxCell>
        <mxCell id="jyipp_2WfXr9Q36Wqz55-66" value="eth0" style="ellipse;whiteSpace=wrap;html=1;fillColor=#fff2cc;strokeColor=#d6b656;" parent="1" vertex="1">
          <mxGeometry x="1105" y="605" width="30" height="30" as="geometry" />
        </mxCell>
        <mxCell id="jyipp_2WfXr9Q36Wqz55-67" value="弹性网卡" style="ellipse;whiteSpace=wrap;html=1;fillColor=#d5e8d4;strokeColor=#82b366;" parent="1" vertex="1">
          <mxGeometry x="1035" y="605" width="30" height="30" as="geometry" />
        </mxCell>
        <mxCell id="jyipp_2WfXr9Q36Wqz55-73" value="" style="endArrow=classic;html=1;exitX=0.75;exitY=1;exitDx=0;exitDy=0;" parent="1" source="jyipp_2WfXr9Q36Wqz55-26" edge="1">
          <mxGeometry width="50" height="50" relative="1" as="geometry">
            <mxPoint x="1070" y="685" as="sourcePoint" />
            <mxPoint x="1120" y="635" as="targetPoint" />
            <Array as="points">
              <mxPoint x="990" y="660" />
              <mxPoint x="1080" y="660" />
            </Array>
          </mxGeometry>
        </mxCell>
        <mxCell id="gd2pXCOPoKfYYE60sO6E-24" style="edgeStyle=orthogonalEdgeStyle;rounded=0;orthogonalLoop=1;jettySize=auto;html=1;exitX=1;exitY=0.5;exitDx=0;exitDy=0;entryX=0;entryY=0.5;entryDx=0;entryDy=0;dashed=1;" edge="1" parent="1" source="gd2pXCOPoKfYYE60sO6E-23" target="jyipp_2WfXr9Q36Wqz55-30">
          <mxGeometry relative="1" as="geometry" />
        </mxCell>
      </root>
    </mxGraphModel>
  </diagram>
</mxfile>
